Coordinates
version=1
nRows=11
nColumns=36
inDegrees=yes

Units are S.I. units (second, meters, Newtons, ...)
If the header above contains a line with 'inDegrees', this indicates whether rotational values are in degrees (yes) or radians (no).

endheader
time	pelvis_tilt	pelvis_list	pelvis_rotation	pelvis_tx	pelvis_ty	pelvis_tz	hip_flexion_r	hip_adduction_r	hip_rotation_r	knee_angle_r	knee_angle_r_beta	ankle_angle_r	subtalar_angle_r	mtp_angle_r	hip_flexion_l	hip_adduction_l	hip_rotation_l	knee_angle_l	knee_angle_l_beta	ankle_angle_l	subtalar_angle_l	mtp_angle_l	lumbar_extension	lumbar_bending	lumbar_rotation	arm_flex_r	arm_add_r	arm_rot_r	elbow_flex_r	pro_sup_r	arm_flex_l	arm_add_l	arm_rot_l	elbow_flex_l	pro_sup_l
      0.92083330	    -27.84336708	      0.93992648	      3.83480945	     -0.74793018	      1.06993438	     -0.06970609	     44.84592397	      2.16044888	      8.33985162	     65.10263360	      1.13625531	     41.14266593	    -29.13238516	     -7.49999987	     46.38573985	      3.93962639	      7.90459243	     66.51476916	      1.16090172	     42.94186099	     -9.11291940	     -7.49999987	    -11.15325367	      3.44538326	     -2.52771146	     34.93133189	     -3.36313644	     19.06682489	     63.72340232	     78.62555809	     42.90054454	     -7.47270405	      8.03392190	     65.13380720	     58.54976389
      0.92500000	    -27.69965504	      0.82812097	      3.77235752	     -0.74752942	      1.07420514	     -0.06930086	     43.86538300	      2.31077009	      8.36873833	     63.68495835	      1.11151221	     40.81917310	    -29.23999696	     -7.49999987	     45.36443016	      3.72422781	      8.03924112	     65.19832014	      1.13792535	     42.05407679	     -9.73343872	     -7.49999987	    -11.19683169	      3.54286208	     -2.42521709	     35.38200002	     -3.20180243	     19.08435901	     65.58201816	     76.57559825	     43.73491210	     -7.41794277	      8.65718475	     67.78082240	     58.58108418
      0.92916670	    -27.28728057	      0.92922840	      3.78985573	     -0.74004051	      1.07693108	     -0.07482598	     42.55072453	      1.85841733	      8.24733009	     62.52303378	      1.09123280	     40.17635146	    -28.50653496	     -7.49999987	     43.80241229	      4.03526821	      8.32533471	     63.82112350	      1.11388874	     41.04966490	    -10.72782082	     -7.49999987	    -11.30949657	      3.49724371	     -2.68430008	     36.74334666	     -3.00360262	     19.28544715	     66.90035405	     76.60261892	     44.41719600	     -7.14918225	      8.96168333	     69.28919385	     58.35339893
      0.93333330	    -26.47769042	      1.04667820	      4.07305450	     -0.73372657	      1.08883692	     -0.07014708	     40.26141578	      1.63670086	      8.19470029	     60.31323135	      1.05266447	     39.52655811	    -28.41384141	     -7.49999987	     41.89877787	      4.09830930	      8.52194612	     62.22275515	      1.08599195	     40.39116752	    -10.40253642	     -7.49999987	    -12.18380687	      3.30541410	     -2.91464519	     37.84279830	     -2.72862065	     18.68151696	     67.96015854	     76.38883093	     45.03085171	     -6.74635576	      9.19703645	     70.56819671	     57.91137042
      0.93750000	    -25.85643040	      1.00858993	      4.47558505	     -0.72592785	      1.08851092	     -0.06650995	     38.23932134	      1.72291020	      7.98081343	     58.60663849	      1.02287881	     39.05655266	    -28.62554596	     -7.49999987	     40.58911817	      3.79812258	      8.78573989	     61.40334807	      1.07169060	     39.78372859	    -10.42951854	     -7.49999987	    -12.54096145	      3.00314715	     -3.04973999	     38.07329622	     -2.72348678	     17.89194231	     69.81292979	     76.00197306	     45.22258062	     -6.28471733	      9.76966789	     73.19428432	     57.34304076
      0.94166670	    -25.84325591	      0.91372429	      4.41764709	     -0.72574756	      1.09167145	     -0.06629672	     37.51983105	      1.61207557	      7.35161425	     57.80625970	      1.00890956	     38.62766693	    -28.47693765	     -7.49999987	     40.09802361	      3.46919460	      8.84993843	     60.70530069	      1.05950737	     39.50338224	    -10.18594358	     -7.49999987	    -12.39012646	      2.55636243	     -3.35970227	     38.82797031	     -2.98886540	     17.82079765	     72.58802384	     74.21801455	     46.00722033	     -6.17152520	     10.32511882	     75.48813084	     57.11992268
      0.94583330	    -25.70166992	      0.94405419	      4.18965838	     -0.71797831	      1.09503622	     -0.06287620	     36.36311097	      1.51256515	      7.04990139	     56.86626870	      0.99250362	     38.03174794	    -28.35646619	     -7.49999987	     39.27123515	      3.08084228	      8.58737827	     59.87355814	      1.04499072	     39.06067954	     -9.61877255	     -7.49999987	    -11.98241240	      1.89061561	     -3.32437359	     39.52937973	     -2.90852372	     18.48509125	     73.21961285	     74.02918082	     46.53549824	     -6.26931112	     11.00654177	     76.89581339	     56.64265841
      0.95000000	    -25.74974446	      0.75807005	      3.71718592	     -0.71240270	      1.09904033	     -0.06725685	     35.23516766	      1.04951025	      6.31492881	     55.00028930	      0.95993614	     37.46363685	    -27.53131423	     -7.49999987	     38.52878991	      2.66472330	      8.51459504	     59.00161159	      1.02977239	     38.92784226	     -9.24903544	     -7.49999987	    -11.17153788	      1.94676742	     -3.04418908	     40.96609529	     -2.56843096	     20.28019290	     72.95322976	     73.52079485	     46.56891218	     -5.95748889	     11.40335398	     78.08437935	     55.61969318
      0.95416670	    -26.22452507	      0.95695166	      3.50685028	     -0.70506021	      1.09864345	     -0.06336587	     34.79420991	      0.54873859	      5.98518865	     54.23365526	      0.94655585	     37.34343631	    -27.58316095	     -7.49999987	     38.24403539	      2.53719343	      8.07325773	     58.07894947	      1.01366889	     38.68948312	     -9.08484878	     -7.49999987	     -9.77813485	      1.31013579	     -2.84644499	     41.74824272	     -1.52400281	     21.69135969	     74.17074398	     73.13401908	     46.46390048	     -5.98479860	     11.99734714	     79.53360837	     54.93838740
      0.95833330	    -26.46892487	      1.14379730	      3.01228689	     -0.69370073	      1.10333985	     -0.06338060	     33.87118427	      0.33451229	      5.97118723	     53.10140331	      0.92679433	     36.85358250	    -27.17228475	     -7.49999987	     37.29864625	      2.28237511	      7.34824950	     56.90480590	      0.99317622	     38.14507663	     -9.06420185	     -7.49999987	     -8.42607145	      0.85655061	     -2.72954135	     41.99991312	     -0.53244558	     23.14568199	     74.47049670	     72.75553807	     45.68788465	     -6.77745498	     12.75265656	     81.61769468	     54.28021773
      0.96250000	    -26.57359715	      1.39550024	      2.42983737	     -0.68624848	      1.10707960	     -0.05928713	     33.00794116	      0.34796369	      6.29863512	     51.98476532	      0.90730532	     36.58319395	    -27.26974029	     -7.49999987	     35.88672491	      1.88928435	      6.64954676	     55.16483173	      0.96280795	     37.34556545	     -9.45698538	     -7.49999987	     -7.08777351	      0.33710216	     -2.53732361	     41.30141950	      0.48133491	     24.41032429	     75.06933661	     72.61296691	     44.61085911	     -7.73055450	     12.67448648	     83.99612065	     53.77816221
